<svg width="30px" height="30px" viewBox="0 0 9.81 9.81" style="shape-rendering:geometricPrecision; text-rendering:geometricPrecision; image-rendering:optimizeQuality; fill-rule:evenodd; clip-rule:evenodd" version="1.1" xml:space="preserve" xmlns="http://www.w3.org/2000/svg" xmlns:xlink="http://www.w3.org/1999/xlink" xmlns:xodm="http://www.corel.com/coreldraw/odm/2003" fill="#000000"><g id="SVGRepo_bgCarrier" stroke-width="0"></g><g id="SVGRepo_tracerCarrier" stroke-linecap="round" stroke-linejoin="round"></g><g id="SVGRepo_iconCarrier"> <defs> <style type="text/css">  .fil0 {fill:none} .fil1 {fill:#2554B0;fill-rule:nonzero} .fil2 {fill:#479DFF;fill-rule:nonzero}  </style> </defs> <g id="Layer_x0020_1"> <rect class="fil0" height="9.81" width="9.81"></rect> <path class="fil1" d="M4.91 7.01c-0.58,0 -1.11,-0.24 -1.49,-0.62 -0.38,-0.38 -0.61,-0.9 -0.61,-1.48 0,-0.58 0.23,-1.11 0.61,-1.49 0.38,-0.38 0.91,-0.61 1.49,-0.61 0.58,0 1.1,0.23 1.48,0.61 0.38,0.38 0.62,0.91 0.62,1.49 0,0.58 -0.24,1.1 -0.62,1.48 -0.38,0.38 -0.9,0.62 -1.48,0.62zm-1.26 -0.84c0.32,0.32 0.76,0.52 1.26,0.52 0.49,0 0.93,-0.2 1.26,-0.52 0.32,-0.33 0.52,-0.77 0.52,-1.26 0,-0.5 -0.2,-0.94 -0.52,-1.26 -0.33,-0.33 -0.77,-0.52 -1.26,-0.52 -0.5,0 -0.94,0.19 -1.26,0.52 -0.33,0.32 -0.52,0.76 -0.52,1.26 0,0.49 0.19,0.93 0.52,1.26z"></path> <path class="fil2" d="M4.75 3.61c0,-0.08 0.07,-0.16 0.16,-0.16 0.08,0 0.16,0.08 0.16,0.16l0 1.02 0.41 -0.24c0.07,-0.04 0.17,-0.01 0.21,0.06 0.05,0.08 0.02,0.17 -0.05,0.22l-0.64 0.37c-0.03,0.02 -0.06,0.03 -0.09,0.03 -0.09,0 -0.16,-0.08 -0.16,-0.16l0 -1.3z"></path> </g> </g></svg>